# xmcd
#
# Track frame offsets:
# 150
# 17021
# 37547
# 62269
# 84395
# 107353
# 133064
# 151718
# 176131
# 199347
#
# Disc length: 2926 seconds
#
# Revision: 0
# Processed by: cddbd v1.4PL0 Copyright (c) Steve Scherf et al.
# Submitted via: Axialis_AX_CDPlayer 2.6
#
DISCID=6c0b6c0a
DTITLE=James Blood Ulmer and Rodolphe Burger - Guitar Music
DYEAR=1900
DGENRE=
TTITLE0=House People
TTITLE1=Are You Glad To Be In America
TTITLE2=Cheering
TTITLE3=Blues Allnight
TTITLE4=Long-legged Fly
TTITLE5=Play With Fire
TTITLE6=Huit Couché
TTITLE7=Let Me Take You Home
TTITLE8=Unlimited Marriage
TTITLE9=High Tech
EXTD=
EXTT0=James Blood Ulmer
EXTT1=James Blood Ulmer
EXTT2=James Blood Ulmer
EXTT3=James Blood Ulmer
EXTT4=Yeats - Rodolphe Burger
EXTT5=Jagger/Jones/Richard/Wyman/Watts
EXTT6=Thomas Lago/Rodolphe Burger
EXTT7=James Blood Ulmer
EXTT8=E. Savitzkaya/Rodolphe Burger
EXTT9=Rodolphe Burger
PLAYORDER=
